<svg xmlns="http://www.w3.org/2000/svg" width="256" height="256"><path fill-opacity=".047" d="M0 128.004v128.004l128.25-.254 128.25-.254.254-127.75L257.008 0H0v128.004m.485.496c0 70.4.119 99.053.265 63.672.146-35.38.146-92.98 0-128C.604 29.153.485 58.1.485 128.5" fill="#1976D2" fill-rule="evenodd"/><path fill-opacity=".35" d="M0 64.004v64.004l128.25-.254 128.25-.254.257-63.75.258-63.75H0v64.004m.471.496c0 35.2.126 49.455.279 31.678.153-17.778.153-46.578-.001-64C.596 14.755.471 29.3.471 64.5m28.214-23.492c-8.455 1.548-12.783 7.974-13.48 20.015-.55 9.503 1.547 16.749 5.911 20.421 8.435 7.098 21.688 4.679 25.9-4.728C49.132 71.989 48.859 71 45.441 71 43.637 71 43 71.542 43 73.077c0 1.142-1.315 3.392-2.923 5C37.741 80.413 36.279 81 32.799 81c-8.684 0-12.255-5.268-12.202-18 .054-12.806 3.575-18 12.202-18 3.48 0 4.942.587 7.278 2.923 1.608 1.608 2.923 3.858 2.923 5 0 1.651.629 2.077 3.067 2.077 2.714 0 2.99-.26 2.395-2.25-2.73-9.137-10.102-13.514-19.777-11.742M58 63v22h5V41h-5v22m16 0v22h5.952l.274-16.744.274-16.743 10.918 16.743C101.295 83.402 102.607 85 105.168 85H108V41H103.047l-.273 17.25-.274 17.25-11.355-17.25C80.78 42.503 79.538 41 76.895 41H74v22m45 0v22h14c13.256 0 14-.105 14-1.967 0-1.823-.825-1.988-11.25-2.25L124.5 80.5v-16l9.249-.144c5.087-.079 9.25-.417 9.25-.75L143 61.5c0-1.229-1.727-1.5-9.544-1.5h-9.544l.294-7.25.294-7.25 10.75-.284c9.925-.262 10.75-.434 10.75-2.25 0-1.858-.744-1.966-13.5-1.966H119v22m35 0v22H160.315l-.64-17.682c-.351-9.725-.264-17.263.193-16.75.458.513 3.609 7.907 7.003 16.432 7.232 18.168 7.305 18.303 9.749 17.844 1.402-.263 3.658-4.768 8.88-17.734l7-17.381.273 17.635.273 17.636H198V40.879l-3.597.311-3.598.31-7.123 17.729c-3.918 9.751-7.411 17.401-7.761 17-.351-.401-3.709-8.492-7.462-17.979L161.635 41H154v22m63.633-10.25c-2.495 6.463-6.309 16.362-8.476 22L205.218 85h2.769c2.469 0 3.013-.651 5.013-6l2.244-6h18.512L236 79c2.002 5.354 2.543 6 5.02 6h2.776l-4.749-12.25c-2.613-6.737-6.439-16.638-8.502-22-3.248-8.441-4.062-9.75-6.064-9.75-2.029 0-2.871 1.445-6.848 11.75m2.998 5.29C218.634 63.6 217 68.341 217 68.575c0 .234 3.375.425 7.5.425s7.5-.203 7.5-.45c0-.683-7.003-19.887-7.395-20.279-.188-.188-1.976 4.208-3.974 9.769M33.471 169.214c-.281.734-.39 10.999-.242 22.811L33.5 213.5l3.225.311 3.225.312.275-16.254.275-16.255 6.123 15.412c6.003 15.11 7.706 17.83 10.491 16.759.762-.293 4.311-7.777 7.886-16.631l6.5-16.099.274 16.473.274 16.472H78v-46h-3.378c-1.857 0-3.814.563-4.347 1.25-.534.688-3.785 8.225-7.225 16.75-3.44 8.525-6.569 15.838-6.954 16.251-.384.414-3.826-7.011-7.647-16.5L41.5 168.5l-3.758-.311c-2.449-.202-3.937.155-4.271 1.025m67.846.036c-1.648 2.572-17.007 43.727-16.506 44.228.287.287 1.737.522 3.222.522 2.391 0 2.95-.689 4.9-6.037l2.201-6.036 9.036.286 9.037.287 2.201 5.5c1.989 4.968 2.524 5.531 5.532 5.823 2.427.236 3.202-.035 2.858-1-.261-.727-4.203-11.11-8.76-23.073-7.502-19.688-8.507-21.75-10.604-21.75-1.274 0-2.676.563-3.117 1.25m28.157-.042c-.283.738-.393 11.005-.245 22.817l.271 21.475 3.25.313 3.25.314.021-16.814.021-16.813 10.971 16.75C157.18 212.772 158.205 214 160.992 214H164v-46h-6l-.01 17.25-.01 17.25-11.24-17c-9.566-14.468-11.65-17.047-13.996-17.317-1.63-.187-2.966.231-3.27 1.025m45 0c-.283.738-.393 11.005-.245 22.817l.271 21.475h6v-45l-2.756-.317c-1.63-.187-2.966.231-3.27 1.025m29.793.042c-1.581 2.02-17.086 43.597-16.484 44.2.303.303 1.788.55 3.3.55 2.459 0 2.953-.609 4.667-5.75l1.917-5.75h18.466l2.186 5.5c1.987 4.999 2.494 5.529 5.569 5.823 2.478.237 3.251-.03 2.89-1-7.423-19.935-16.296-42.619-17.043-43.573-.539-.687-1.77-1.25-2.735-1.25-.965 0-2.195.563-2.733 1.25M102.998 180.5c-.647 1.65-2.192 5.778-3.435 9.174l-2.26 6.174 6.839.326c6.03.287 6.776.127 6.304-1.352-.294-.923-1.826-5.198-3.403-9.5l-2.869-7.822-1.176 3m100.358 6.506L200.212 196h13.576l-3.144-8.994c-1.729-4.946-3.369-8.993-3.644-8.993-.275 0-1.915 4.047-3.644 8.993" fill="#1976D2" fill-rule="evenodd"/><path fill-opacity=".183" d="M0 64.004v64.004l128.25-.254 128.25-.254.257-63.75.258-63.75H0v64.004m.471.496c0 35.2.126 49.455.279 31.678.153-17.778.153-46.578-.001-64C.596 14.755.471 29.3.471 64.5M26 41.118c-3.83 1.52-8.827 6.835-10.162 10.81-.66 1.965-1.185 7.273-1.167 11.797.027 6.73.479 9.092 2.49 13 7.055 13.714 28.574 11.849 31.49-2.729.561-2.804.403-2.996-2.448-2.996-2.612 0-3.218.514-4.235 3.597-2.138 6.477-11.9 8.306-16.741 3.138C22.084 74.38 21 70.601 21 63c0-7.579 1.084-11.38 4.192-14.698 4.829-5.156 13.613-3.682 16.456 2.761C43.101 54.356 43.865 55 46.317 55c2.743 0 2.893-.2 2.316-3.084C46.787 42.686 35.556 37.328 26 41.118m31.387.316c-.236.614-.306 10.779-.158 22.591L57.5 85.5h6l.269-22.134.269-22.133-3.112-.457c-1.773-.26-3.295.023-3.539.658m45.137-.624c-.288.288-.524 7.948-.524 17.022v16.499L91.25 57.682c-10.258-15.887-10.899-16.65-14-16.665L74 41v45h6V51.658l11.25 16.921c9.548 14.361 11.666 16.969 14 17.237l2.75.317v-44.9l-2.476-.473c-1.363-.261-2.713-.238-3 .05m29.207-.032l-13.769.279.269 22.221.269 22.222h28l.316-2.75.317-2.75H125V65h9.5c9.467 0 9.5-.009 9.5-2.5s-.033-2.5-9.5-2.5H125V46h11c10.996 0 11-.001 11-2.441 0-1.343-.338-2.58-.75-2.75-.412-.17-6.946-.184-14.519-.031m22.5 22.414L154.5 85.5l2.726.314 2.725.314.275-16.666.274-16.666 6.635 16.352c5.943 14.648 6.881 16.352 8.996 16.352 2.096 0 3.011-1.577 8.122-14 3.167-7.7 6.32-15.25 7.006-16.779 1.057-2.354 1.246-.218 1.244 14L192.5 85.5h6l.269-22.25.269-22.25h-8.697l-6.911 17.426c-3.802 9.584-7.132 17.205-7.402 16.936-.269-.27-3.485-7.999-7.147-17.176L162.223 41.5l-4.131-.308-4.131-.309.27 22.309m59.007-.44c-4.544 11.961-8.257 22.114-8.25 22.561.007.448 1.44.673 3.185.5 2.894-.285 3.341-.818 5.083-6.063l1.911-5.75h18.666l1.911 5.75c1.742 5.245 2.189 5.778 5.083 6.063 1.745.173 3.18-.052 3.189-.5.008-.447-3.704-10.592-8.25-22.545-8.225-21.625-8.281-21.732-11.266-21.748-2.991-.016-3.026.052-11.262 21.732m7.961-4.849c-1.76 4.861-3.199 9.346-3.199 9.968 0 .723 2.337 1.129 6.5 1.129 4.32 0 6.5-.395 6.5-1.178 0-.956-5.836-17.779-6.432-18.54-.094-.12-1.61 3.759-3.369 8.621M34 191v22h6.312l-.605-17.25c-.333-9.488-.248-16.575.187-15.75.436.825 3.666 8.607 7.177 17.294 6.023 14.898 6.528 15.778 8.907 15.5 2.259-.263 3.206-1.986 9.072-16.511 3.603-8.919 6.753-16.421 7-16.669.248-.249.308 7.161.134 16.467L71.868 213H78v-44h-7.794l-6.684 16.75c-3.676 9.213-6.985 17.062-7.353 17.444-.368.382-3.801-7.155-7.628-16.75L41.582 169H34v22m59.175-.538c-4.496 11.805-8.175 21.705-8.175 22 0 .296 1.29.538 2.866.538 2.538 0 3.094-.601 4.859-5.25l1.992-5.25 9.423-.284 9.423-.283 1.881 5.533c1.762 5.184 2.085 5.534 5.117 5.534h3.235l-4.749-12.25c-2.613-6.738-6.439-16.637-8.502-22-3.473-9.026-3.954-9.75-6.473-9.75-2.623 0-3.016.773-10.897 21.462M130 191v22h5.95l.275-16.241.275-16.242 10.5 16.23c10.011 15.474 10.651 16.231 13.75 16.242L164 213v-44h-5.952l-.274 16.713-.274 16.712-10.849-16.712C136.73 170.429 135.554 169 132.901 169H130v22m45 0v22h6v-44h-6v22m21.156-.726c-4.486 11.701-8.156 21.601-8.156 22 0 .399 1.327.726 2.949.726 2.698 0 3.097-.469 4.683-5.5l1.733-5.5h19.27l1.733 5.5c1.586 5.031 1.985 5.5 4.683 5.5 1.622 0 2.95-.338 2.952-.75.001-.412-3.655-10.312-8.125-22-7.827-20.465-8.228-21.25-10.847-21.25-2.618 0-3.022.79-10.875 21.274M103.219 179C101.314 183.947 97 196.129 97 196.56c0 .242 3.15.44 7 .44s7-.395 7-.877-1.534-5.094-3.409-10.25c-3.089-8.493-3.5-9.138-4.372-6.873m103.44-1.256c-.732 1.183-6.659 17.808-6.659 18.676 0 .319 3.15.58 7 .58s7-.338 6.999-.75c-.002-2.217-6.806-19.371-7.34-18.506" fill="#1976D2" fill-rule="evenodd"/><path fill-opacity=".752" d="M34 190.94V213h4.954l.273-17.588.273-17.588 7.051 17.338c9.448 23.23 9.308 23.225 18.324.652 3.665-9.177 7.03-17.052 7.477-17.499.447-.448.487 7.174.088 16.936L71.714 213H78v-44l-3.75.008-3.75.008-5.418 13.742c-2.979 7.558-6.281 15.767-7.336 18.242l-1.919 4.5-7.21-18-7.211-18-3.703-.31-3.703-.311v22.061m67.658-21.19c-.489.796-12.965 33.152-15.231 39.5-1.336 3.744-1.334 3.75 1.388 3.75 2.422 0 2.946-.64 4.705-5.75l1.98-5.75H113.377l2.203 5.5c1.837 4.584 2.662 5.555 4.95 5.83 1.95.234 2.605-.055 2.261-1-.267-.732-4.041-10.665-8.388-22.075-6.959-18.268-8.165-20.746-10.094-20.75-1.205-.003-2.398.333-2.651.745M130 191v22H134.953l.273-17.226.274-17.227 11.267 17.227C156.35 210.426 158.405 213 160.517 213H163v-44h-5l-.025 17.25-.026 17.25-11.224-17.234c-10.017-15.378-11.521-17.235-13.975-17.25L130 169v22m45 0v22h5v-44h-5v22m21.5-.864c-4.4 11.605-8.162 21.531-8.359 22.059-.197.527.908.812 2.457.632 2.392-.278 3.13-1.153 4.908-5.827l2.093-5.5h18.802l2.093 5.5c1.778 4.674 2.516 5.549 4.908 5.827 1.549.18 2.654-.104 2.457-.631C210.45 171.082 209.55 169.022 207 169.03c-2.334.006-3.033 1.412-10.5 21.106m-96.614-3.386l-3.543 9.75 7.451.294c4.098.162 7.601.144 7.785-.04.516-.515-6.811-19.754-7.523-19.754-.345 0-2.222 4.387-4.17 9.75m102.895 0l-3.491 9.75 3.855.307c2.12.17 5.59.17 7.71 0l3.855-.307-3.491-9.75c-1.92-5.363-3.819-9.75-4.219-9.75-.4 0-2.299 4.387-4.219 9.75" fill="#1976D2" fill-rule="evenodd"/></svg>